<svg width="184" height="33" viewBox="0 0 184 33" fill="none" xmlns="http://www.w3.org/2000/svg">
<path d="M26.1689 16.2456C26.1689 17.6958 25.9785 19.0947 25.5977 20.4424C25.2314 21.7754 24.7041 23.0278 24.0156 24.1997C23.3271 25.3569 22.5068 26.4189 21.5547 27.3857C20.6025 28.3379 19.5405 29.1582 18.3687 29.8467C17.1968 30.5352 15.937 31.0698 14.5894 31.4507C13.2563 31.8169 11.8647 32 10.4146 32H0.922363V0.491211H10.4146C11.8647 0.491211 13.2563 0.681641 14.5894 1.0625C15.937 1.42871 17.1968 1.95605 18.3687 2.64453C19.5405 3.33301 20.6025 4.16064 21.5547 5.12744C22.5068 6.07959 23.3271 7.1416 24.0156 8.31348C24.7041 9.4707 25.2314 10.7231 25.5977 12.0708C25.9785 13.4038 26.1689 14.7954 26.1689 16.2456ZM19.8628 16.2456C19.8628 14.9419 19.6138 13.7188 19.1157 12.5762C18.6323 11.4336 17.9585 10.4375 17.0942 9.58789C16.2446 8.72363 15.2412 8.04248 14.084 7.54443C12.9414 7.04639 11.7183 6.79736 10.4146 6.79736H7.27246V25.6938H10.4146C11.7183 25.6938 12.9414 25.4521 14.084 24.9688C15.2412 24.4707 16.2446 23.7969 17.0942 22.9473C17.9585 22.083 18.6323 21.0796 19.1157 19.937C19.6138 18.7798 19.8628 17.5493 19.8628 16.2456ZM52.4702 20.0249C52.4702 21.7827 52.1553 23.4233 51.5254 24.9468C50.8955 26.4556 50.0386 27.7666 48.9546 28.8799C47.8706 29.9785 46.5962 30.8501 45.1313 31.4946C43.6812 32.1245 42.1211 32.4395 40.4512 32.4395C38.7959 32.4395 37.2358 32.1245 35.771 31.4946C34.3208 30.8501 33.0464 29.9785 31.9478 28.8799C30.8638 27.7666 30.0068 26.4556 29.377 24.9468C28.7471 23.4233 28.4321 21.7827 28.4321 20.0249C28.4321 18.2378 28.7471 16.5825 29.377 15.0591C30.0068 13.5356 30.8638 12.2246 31.9478 11.126C33.0464 10.0127 34.3208 9.14111 35.771 8.51123C37.2358 7.88135 38.7959 7.56641 40.4512 7.56641C42.1211 7.56641 43.6812 7.8667 45.1313 8.46729C46.5962 9.05322 47.8706 9.89551 48.9546 10.9941C50.0386 12.0781 50.8955 13.3892 51.5254 14.9272C52.1553 16.4507 52.4702 18.1499 52.4702 20.0249ZM46.4277 20.0249C46.4277 19.0581 46.2666 18.1865 45.9443 17.4102C45.6367 16.6191 45.2119 15.9453 44.6699 15.3887C44.1279 14.8174 43.4907 14.3853 42.7583 14.0923C42.0405 13.7847 41.2715 13.6309 40.4512 13.6309C39.6309 13.6309 38.8545 13.7847 38.1221 14.0923C37.4043 14.3853 36.7744 14.8174 36.2324 15.3887C35.7051 15.9453 35.2876 16.6191 34.98 17.4102C34.6724 18.1865 34.5186 19.0581 34.5186 20.0249C34.5186 20.9331 34.6724 21.7754 34.98 22.5518C35.2876 23.3281 35.7051 24.002 36.2324 24.5732C36.7744 25.1445 37.4043 25.5986 38.1221 25.9355C38.8545 26.2578 39.6309 26.4189 40.4512 26.4189C41.2715 26.4189 42.0405 26.2651 42.7583 25.9575C43.4907 25.6499 44.1279 25.2178 44.6699 24.6611C45.2119 24.1045 45.6367 23.4307 45.9443 22.6396C46.2666 21.8486 46.4277 20.9771 46.4277 20.0249ZM76.3545 13.1475L71.96 17.564C71.7402 16.9487 71.4399 16.3994 71.0591 15.916C70.6782 15.418 70.2461 15.0005 69.7627 14.6636C69.2939 14.3267 68.7812 14.0703 68.2246 13.8945C67.668 13.7188 67.0967 13.6309 66.5107 13.6309C65.6904 13.6309 64.9141 13.7993 64.1816 14.1362C63.4639 14.4731 62.834 14.9492 62.292 15.5645C61.7646 16.165 61.3472 16.8828 61.0396 17.7178C60.7319 18.5527 60.5781 19.4756 60.5781 20.4863C60.5781 21.3066 60.7319 22.0757 61.0396 22.7935C61.3472 23.5112 61.7646 24.1411 62.292 24.6831C62.834 25.2251 63.4639 25.6499 64.1816 25.9575C64.9141 26.2651 65.6904 26.4189 66.5107 26.4189C67.0967 26.4189 67.6606 26.3384 68.2026 26.1772C68.7446 26.0161 69.25 25.7891 69.7188 25.4961C70.2021 25.1885 70.627 24.8223 70.9932 24.3975C71.374 23.958 71.6816 23.4746 71.916 22.9473L76.3105 27.3638C75.7539 28.1548 75.1094 28.8652 74.377 29.4951C73.6592 30.125 72.8755 30.6597 72.0259 31.0991C71.1909 31.5386 70.3047 31.8682 69.3672 32.0879C68.4443 32.3223 67.4922 32.4395 66.5107 32.4395C64.8555 32.4395 63.2954 32.1318 61.8306 31.5166C60.3804 30.8867 59.106 30.0298 58.0073 28.9458C56.9233 27.8618 56.0664 26.5947 55.4365 25.1445C54.8066 23.6943 54.4917 22.1416 54.4917 20.4863C54.4917 18.6846 54.8066 17 55.4365 15.4326C56.0664 13.8652 56.9233 12.5029 58.0073 11.3457C59.106 10.1738 60.3804 9.25098 61.8306 8.57715C63.2954 7.90332 64.8555 7.56641 66.5107 7.56641C67.4922 7.56641 68.4517 7.69092 69.3892 7.93994C70.3413 8.18896 71.2422 8.55518 72.0918 9.03857C72.9561 9.50732 73.7471 10.0859 74.4648 10.7744C75.1973 11.4629 75.8271 12.2539 76.3545 13.1475ZM88.3076 26.2432C88.542 26.3164 88.7764 26.3677 89.0107 26.397C89.2451 26.4116 89.4795 26.4189 89.7139 26.4189C90.2998 26.4189 90.8638 26.3384 91.4058 26.1772C91.9478 26.0161 92.4531 25.7891 92.9219 25.4961C93.4053 25.1885 93.8301 24.8223 94.1963 24.3975C94.5771 23.958 94.8848 23.4746 95.1191 22.9473L99.5137 27.3638C98.957 28.1548 98.3125 28.8652 97.5801 29.4951C96.8623 30.125 96.0786 30.6597 95.229 31.0991C94.394 31.5386 93.5078 31.8682 92.5703 32.0879C91.6475 32.3223 90.6953 32.4395 89.7139 32.4395C88.0586 32.4395 86.4985 32.1318 85.0337 31.5166C83.5835 30.9014 82.3091 30.0444 81.2104 28.9458C80.1265 27.8472 79.2695 26.5435 78.6396 25.0347C78.0098 23.5112 77.6948 21.8413 77.6948 20.0249C77.6948 18.1646 78.0098 16.4653 78.6396 14.9272C79.2695 13.3892 80.1265 12.0781 81.2104 10.9941C82.3091 9.91016 83.5835 9.06787 85.0337 8.46729C86.4985 7.8667 88.0586 7.56641 89.7139 7.56641C90.6953 7.56641 91.6548 7.68359 92.5923 7.91797C93.5298 8.15234 94.416 8.48926 95.251 8.92871C96.1006 9.36816 96.8916 9.91016 97.624 10.5547C98.3564 11.1846 99.001 11.895 99.5576 12.686L88.3076 26.2432ZM91.3838 13.8726C91.1055 13.77 90.8271 13.7041 90.5488 13.6748C90.2852 13.6455 90.0068 13.6309 89.7139 13.6309C88.8936 13.6309 88.1172 13.7847 87.3848 14.0923C86.667 14.3853 86.0371 14.8101 85.4951 15.3667C84.9678 15.9233 84.5503 16.5972 84.2427 17.3882C83.9351 18.1646 83.7812 19.0435 83.7812 20.0249C83.7812 20.2446 83.7886 20.4937 83.8032 20.772C83.8325 21.0503 83.8691 21.3359 83.9131 21.6289C83.9717 21.9072 84.0376 22.1782 84.1108 22.4419C84.1841 22.7056 84.2793 22.9399 84.3965 23.145L91.3838 13.8726ZM137.9 32H115.839V0.491211H122.146V25.6938H137.9V32ZM162.729 32H161.279L158.95 28.77C158.378 29.2827 157.771 29.7661 157.126 30.2202C156.496 30.6597 155.83 31.0479 155.126 31.3848C154.423 31.707 153.698 31.9634 152.951 32.1538C152.219 32.3442 151.472 32.4395 150.71 32.4395C149.055 32.4395 147.495 32.1611 146.03 31.6045C144.58 31.0479 143.305 30.2422 142.207 29.1875C141.123 28.1182 140.266 26.8145 139.636 25.2764C139.006 23.7383 138.691 21.9878 138.691 20.0249C138.691 18.1938 139.006 16.5166 139.636 14.9932C140.266 13.4551 141.123 12.1367 142.207 11.0381C143.305 9.93945 144.58 9.08984 146.03 8.48926C147.495 7.87402 149.055 7.56641 150.71 7.56641C151.472 7.56641 152.226 7.66162 152.973 7.85205C153.72 8.04248 154.445 8.30615 155.148 8.64307C155.852 8.97998 156.518 9.37549 157.148 9.82959C157.792 10.2837 158.393 10.7744 158.95 11.3018L161.279 8.51123H162.729V32ZM156.687 20.0249C156.687 19.2046 156.525 18.4136 156.203 17.6519C155.896 16.8755 155.471 16.1943 154.929 15.6084C154.387 15.0078 153.75 14.5317 153.017 14.1802C152.299 13.814 151.53 13.6309 150.71 13.6309C149.89 13.6309 149.113 13.77 148.381 14.0483C147.663 14.3267 147.033 14.7368 146.491 15.2788C145.964 15.8208 145.546 16.4946 145.239 17.3003C144.931 18.0913 144.777 18.9995 144.777 20.0249C144.777 21.0503 144.931 21.9658 145.239 22.7715C145.546 23.5625 145.964 24.229 146.491 24.771C147.033 25.313 147.663 25.7231 148.381 26.0015C149.113 26.2798 149.89 26.4189 150.71 26.4189C151.53 26.4189 152.299 26.2432 153.017 25.8916C153.75 25.5254 154.387 25.0493 154.929 24.4634C155.471 23.8628 155.896 23.1816 156.203 22.4199C156.525 21.6436 156.687 20.8452 156.687 20.0249ZM173.32 32H167.321V8.46729H168.771L170.749 11.2578C171.716 10.3789 172.814 9.70508 174.045 9.23633C175.275 8.75293 176.55 8.51123 177.868 8.51123H183.164V14.4878H177.868C177.238 14.4878 176.645 14.605 176.088 14.8394C175.532 15.0737 175.048 15.396 174.638 15.8062C174.228 16.2163 173.906 16.6997 173.671 17.2563C173.437 17.813 173.32 18.4062 173.32 19.0361V32Z" fill="#F2B705"/>
</svg>
